<?xml version="1.0" standalone="no"?>
<!DOCTYPE svg PUBLIC "-//W3C//DTD SVG 20010904//EN"
 "http://www.w3.org/TR/2001/REC-SVG-20010904/DTD/svg10.dtd">
<svg version="1.0" xmlns="http://www.w3.org/2000/svg"
 width="920.000000pt" height="431.000000pt" viewBox="0 0 920.000000 431.000000"
 preserveAspectRatio="xMidYMid meet">

<g transform="translate(0.000000,431.000000) scale(0.100000,-0.100000)"
fill="#000000" stroke="none">
<path d="M3810 3670 c-225 -31 -461 -125 -648 -257 -92 -66 -235 -205 -308
-302 -117 -155 -211 -365 -256 -569 -31 -139 -31 -424 -1 -562 111 -500 454
-892 924 -1058 167 -59 275 -77 469 -76 195 0 305 18 467 75 450 159 792 532
907 989 l24 95 137 0 138 0 52 -125 53 -125 100 -3 101 -3 -61 138 c-33 76
-100 228 -147 338 -48 110 -134 307 -192 438 l-104 238 -103 -2 -103 -2 -28
52 c-88 167 -284 381 -448 488 -165 109 -343 183 -525 218 -97 19 -355 28
-448 15z m442 -100 c254 -52 467 -163 655 -344 115 -110 204 -226 268 -351
l48 -93 -111 -248 c-60 -137 -145 -328 -187 -424 -42 -96 -94 -215 -116 -264
-21 -49 -39 -90 -39 -93 0 -2 43 -2 96 -1 l96 3 53 125 52 125 118 3 117 3 -7
-38 c-12 -71 -75 -245 -117 -326 -150 -287 -423 -530 -720 -638 -320 -117
-659 -112 -971 13 -346 139 -633 439 -756 791 -55 157 -74 273 -74 447 0 174
19 291 74 447 194 549 724 910 1304 887 66 -3 164 -14 217 -24z m1222 -1123
c58 -137 106 -254 106 -260 0 -9 -24 -11 -83 -9 l-84 3 -6 127 c-6 121 -26
259 -48 330 -9 28 -5 72 5 61 2 -2 52 -116 110 -252z m-152 -97 c6 -75 9 -144
5 -153 -5 -14 -21 -17 -96 -17 l-90 0 35 83 c20 45 54 127 77 181 38 93 42 97
49 70 5 -16 14 -90 20 -164z"/>
<path d="M3855 2876 c-128 -30 -220 -80 -309 -172 -102 -103 -152 -220 -163
-379 -29 -434 353 -741 782 -630 115 30 239 111 299 195 33 46 66 103 66 115
0 3 -40 5 -89 5 l-90 0 -30 -42 c-40 -55 -87 -93 -159 -126 -46 -21 -76 -27
-153 -30 -156 -7 -259 34 -355 141 -81 90 -114 186 -114 332 0 135 33 230 110
318 89 101 194 147 332 147 152 0 248 -42 325 -141 l46 -59 89 0 c48 0 88 2
88 5 0 3 -9 23 -19 44 -58 113 -176 209 -315 256 -97 33 -250 42 -341 21z"/>
<path d="M3469 614 c-5 -15 -8 -29 -5 -31 2 -3 7 6 11 18 7 22 8 22 23 3 13
-17 14 -17 8 -1 -3 10 -6 23 -6 28 0 19 -21 8 -31 -17z"/>
<path d="M3686 626 c10 -8 21 -12 24 -10 5 6 -21 24 -34 24 -6 0 -1 -6 10 -14z"/>
<path d="M3780 555 l0 -85 43 2 42 1 -37 4 -37 4 0 72 c0 44 5 75 12 79 8 5 6
8 -5 8 -16 0 -18 -11 -18 -85z"/>
<path d="M3942 628 c-22 -22 -7 -69 23 -68 5 0 2 5 -7 11 -10 5 -18 19 -18 29
0 10 8 24 18 29 9 6 12 11 7 11 -6 0 -16 -5 -23 -12z"/>
<path d="M3990 633 c8 -3 22 -11 30 -17 13 -10 13 -9 1 7 -7 9 -21 17 -30 16
-13 0 -14 -1 -1 -6z"/>
<path d="M4115 615 c-31 -30 -33 -82 -5 -113 29 -31 36 -28 11 4 -58 73 16
155 102 113 21 -10 21 -10 3 5 -30 24 -83 20 -111 -9z"/>
<path d="M4320 553 c0 -47 3 -84 6 -81 3 3 5 40 5 81 0 63 3 77 17 80 12 3 11
5 -5 6 -22 1 -23 -2 -23 -86z"/>
<path d="M4378 633 c7 -3 16 -2 19 1 4 3 -2 6 -13 5 -11 0 -14 -3 -6 -6z"/>
<path d="M4504 555 c0 -49 1 -71 3 -48 2 23 2 64 0 90 -2 26 -3 8 -3 -42z"/>
<path d="M4630 630 c0 -5 4 -10 9 -10 5 0 19 -28 30 -62 19 -58 40 -102 41
-87 0 4 -6 22 -13 40 -8 19 -22 55 -31 82 -16 42 -36 63 -36 37z"/>
<path d="M4874 555 c0 -49 1 -71 3 -48 2 23 2 64 0 90 -2 26 -3 8 -3 -42z"/>
<path d="M4952 553 l2 -88 3 79 4 79 35 -51 c19 -29 37 -52 40 -52 2 0 -14 27
-36 60 -22 33 -43 60 -45 60 -3 0 -4 -39 -3 -87z"/>
<path d="M5062 572 c-1 -49 -6 -71 -13 -67 -6 4 -5 -3 3 -14 12 -20 13 -19 16
18 2 22 1 62 -1 88 -3 37 -4 31 -5 -25z"/>
<path d="M5142 553 l2 -88 3 73 c3 48 8 70 14 66 7 -4 7 1 0 15 -7 11 -14 21
-16 21 -3 0 -4 -39 -3 -87z"/>
<path d="M5265 570 c-19 -38 -37 -70 -40 -70 -2 0 -13 17 -24 38 -11 20 -20
33 -20 27 0 -5 10 -29 22 -53 l23 -43 34 72 35 72 6 -74 5 -74 2 88 c1 48 0
87 -3 87 -3 0 -21 -31 -40 -70z"/>
<path d="M5395 615 c-31 -30 -33 -82 -5 -113 29 -31 36 -28 11 4 -58 73 16
155 102 113 21 -10 21 -10 3 5 -30 24 -83 20 -111 -9z"/>
<path d="M5600 555 l0 -85 33 1 c29 2 30 2 5 6 -27 4 -27 5 -27 76 1 43 6 75
12 79 8 5 6 8 -5 8 -16 0 -18 -11 -18 -85z"/>
<path d="M5670 631 c19 -5 25 -14 25 -33 -1 -15 3 -24 7 -22 12 8 10 38 -4 52
-7 7 -21 12 -32 11 -18 -1 -17 -2 4 -8z"/>
<path d="M5774 555 c0 -49 1 -71 3 -48 2 23 2 64 0 90 -2 26 -3 8 -3 -42z"/>
<path d="M5852 558 l-2 -88 43 2 42 1 -37 4 -37 4 -4 82 -3 82 -2 -87z"/>
<path d="M5984 555 c0 -49 1 -71 3 -48 2 23 2 64 0 90 -2 26 -3 8 -3 -42z"/>
<path d="M6111 618 c-18 -49 -20 -71 -3 -33 17 37 19 38 31 20 11 -17 12 -18
7 -2 -3 10 -6 23 -6 28 0 18 -21 8 -29 -13z"/>
<path d="M6261 553 c2 -92 6 -82 11 25 2 34 0 62 -4 62 -5 0 -7 -39 -7 -87z"/>
<path d="M6315 631 c41 -8 49 -55 12 -72 l-25 -11 20 -34 c11 -19 25 -37 31
-41 6 -4 0 10 -12 31 l-23 37 21 15 c40 29 21 85 -28 83 -24 -1 -24 -2 4 -8z"/>
<path d="M6434 555 c0 -49 1 -71 3 -48 2 23 2 64 0 90 -2 26 -3 8 -3 -42z"/>
<path d="M6561 618 c-18 -49 -20 -71 -3 -33 17 37 19 38 31 20 11 -17 12 -18
7 -2 -3 10 -6 23 -6 28 0 18 -21 8 -29 -13z"/>
<path d="M4416 609 c3 -17 0 -32 -11 -43 -9 -9 -12 -16 -5 -16 19 0 34 46 21
66 -10 17 -11 16 -5 -7z"/>
<path d="M3616 586 c3 -8 13 -17 21 -20 25 -10 23 -3 -3 17 -18 13 -22 14 -18
3z"/>
<path d="M4246 568 c5 -30 2 -41 -19 -62 -15 -14 -22 -26 -17 -26 15 0 50 52
50 74 0 11 -5 28 -10 36 -6 10 -8 4 -4 -22z"/>
<path d="M4601 549 c-13 -39 -14 -36 2 -36 7 0 12 14 13 34 0 18 -1 33 -2 33
-1 0 -7 -14 -13 -31z"/>
<path d="M5531 557 c0 -15 -13 -39 -27 -53 -14 -15 -20 -24 -13 -22 24 8 51
55 46 79 -4 22 -4 22 -6 -4z"/>
<path d="M6604 550 c1 -20 9 -43 19 -53 18 -18 19 -18 12 5 -4 12 -13 37 -20
53 l-12 30 1 -35z"/>
<path d="M3688 548 c12 -6 23 -20 23 -32 1 -19 2 -20 6 -2 5 20 -20 47 -41 45
-6 0 -1 -5 12 -11z"/>
<path d="M3990 553 c8 -3 22 -11 30 -17 13 -10 13 -9 1 7 -7 9 -21 17 -30 16
-13 0 -14 -1 -1 -6z"/>
<path d="M3523 538 c4 -10 2 -18 -3 -18 -6 0 -2 -8 8 -18 19 -21 29 -21 16 0
-5 7 -9 19 -10 26 -2 8 -6 17 -10 20 -4 4 -4 -1 -1 -10z"/>
<path d="M4370 545 c0 -11 45 -75 53 -75 4 0 -5 18 -19 40 -25 38 -34 47 -34
35z"/>
<path d="M5699 518 c4 -28 6 -29 9 -9 2 13 0 27 -5 32 -6 6 -7 -3 -4 -23z"/>
<path d="M6165 538 c2 -10 0 -18 -5 -18 -6 0 -2 -8 8 -18 24 -26 26 -20 7 19
-8 19 -13 26 -10 17z"/>
<path d="M3438 525 c-3 -11 -9 -29 -13 -40 -3 -11 1 -7 10 8 9 16 15 33 12 40
-2 6 -6 3 -9 -8z"/>
<path d="M6071 509 c-14 -42 -7 -49 9 -9 7 17 10 33 8 36 -3 3 -11 -9 -17 -27z"/>
<path d="M6521 509 c-6 -18 -9 -34 -7 -36 2 -3 7 5 11 16 4 12 15 21 28 22 15
0 17 2 7 6 -8 3 -18 10 -21 15 -4 6 -11 -5 -18 -23z"/>
<path d="M3468 513 c7 -3 16 -2 19 1 4 3 -2 6 -13 5 -11 0 -14 -3 -6 -6z"/>
<path d="M4020 500 c-6 -11 -8 -20 -6 -20 3 0 10 9 16 20 6 11 8 20 6 20 -3 0
-10 -9 -16 -20z"/>
<path d="M6108 513 c7 -3 16 -2 19 1 4 3 -2 6 -13 5 -11 0 -14 -3 -6 -6z"/>
<path d="M3620 501 c0 -6 4 -13 10 -16 6 -3 7 1 4 9 -7 18 -14 21 -14 7z"/>
<path d="M3930 502 c0 -16 37 -34 58 -29 14 4 14 5 -2 6 -11 0 -28 8 -38 18
-10 9 -18 11 -18 5z"/>
<path d="M3670 480 c-21 -7 -21 -8 -5 -9 11 0 27 4 35 9 18 11 5 11 -30 0z"/>
<path d="M4168 473 c7 -3 16 -2 19 1 4 3 -2 6 -13 5 -11 0 -14 -3 -6 -6z"/>
<path d="M5448 473 c7 -3 16 -2 19 1 4 3 -2 6 -13 5 -11 0 -14 -3 -6 -6z"/>
</g>
</svg>
